<svg width="496" height="496" viewBox="0 0 496 496" fill="none" xmlns="http://www.w3.org/2000/svg">
<path d="M248 0C111 0 0 111 0 248C0 385 111 496 248 496C385 496 496 385 496 248C496 111 385 0 248 0ZM328 168C345.7 168 360 182.3 360 200C360 217.7 345.7 232 328 232C310.3 232 296 217.7 296 200C296 182.3 310.3 168 328 168ZM168 168C185.7 168 200 182.3 200 200C200 217.7 185.7 232 168 232C150.3 232 136 217.7 136 200C136 182.3 150.3 168 168 168ZM362.8 338.2C334.3 372.4 292.5 392 248 392C203.5 392 161.7 372.4 133.2 338.2C119.6 321.9 144.2 301.5 157.8 317.7C180.2 344.6 213 359.9 248 359.9C283 359.9 315.8 344.5 338.2 317.7C351.6 301.5 376.3 321.9 362.8 338.2Z" fill="#283593"/>
</svg>
