<svg width="512" height="456" viewBox="0 0 512 456" fill="none" xmlns="http://www.w3.org/2000/svg">
<path d="M512 79.275C488.342 45.488 441.304 36.584 407.511 60.242L233.753 181.907L170.57 137.661C194.096 97.043 183.03 44.482 143.86 17.058C102.496 -11.896 45.505 -1.84798 16.539 39.508C-12.414 80.866 -2.374 137.869 38.991 166.835C67.375 186.709 103.128 188.199 132.12 173.817L209.508 228.002L132.127 282.181C103.135 267.806 67.384 269.296 38.998 289.163C-2.365 318.129 -12.406 375.126 16.546 416.483C45.512 457.846 102.509 467.894 143.866 438.94C183.031 411.516 194.095 358.955 170.576 318.337L233.759 274.091L407.51 395.749C441.303 419.414 488.341 410.504 511.999 376.716L299.589 228.001L512 79.275ZM91.627 139.539C65.454 139.539 44.235 118.32 44.235 92.147C44.235 65.974 65.455 44.755 91.627 44.755C117.806 44.755 139.019 65.974 139.019 92.147C139.019 118.32 117.806 139.539 91.627 139.539ZM91.627 411.253C65.454 411.253 44.235 390.034 44.235 363.861C44.235 337.688 65.454 316.469 91.627 316.469C117.806 316.469 139.019 337.688 139.019 363.861C139.019 390.033 117.806 411.253 91.627 411.253Z" fill="white"/>
</svg>
