<svg width="43" height="34" viewBox="0 0 43 34" fill="none" xmlns="http://www.w3.org/2000/svg">
<path d="M38 16V4C38 1.8 36.2 0 34 0H4C1.8 0 0 1.8 0 4V16C0 18.2 1.8 20 4 20H34C36.2 20 38 18.2 38 16ZM4 4H34V16H4V4Z" fill="#656565"/>
<rect x="3.9375" y="3.9375" width="30.125" height="12.125" fill="#F9F9F9"/>
<path d="M33 34C38.5228 34 43 29.5228 43 24C43 18.4772 38.5228 14 33 14C27.4772 14 23 18.4772 23 24C23 29.5228 27.4772 34 33 34Z" fill="#F44336"/>
<path d="M36.1895 29.3025L38.3105 27.1815L29.8265 18.6975L27.7055 20.8185L36.1895 29.3025Z" fill="white"/>
<path d="M27.6975 27.1895L29.8185 29.3105L38.3025 20.8265L36.1815 18.7055L27.6975 27.1895Z" fill="white"/>
</svg>
