<svg xmlns="http://www.w3.org/2000/svg" xmlns:xlink="http://www.w3.org/1999/xlink" fill="none" version="1.1" width="20" height="20" viewBox="0 0 20 20"><defs><clipPath id="master_svg0_1504_89367/1504_55656"><rect x="0" y="0" width="20" height="20" rx="0"/></clipPath></defs><g clip-path="url(#master_svg0_1504_89367/1504_55656)"><g><path d="M6.1247510190486905,7.136761201171875L16.54005101904869,7.136761201171875C16.59805101904869,7.136761201171875,16.65215101904869,7.105271201171875,16.682351019048692,7.054891201171875L17.91675101904869,4.916151201171875C17.94325101904869,4.869551201171875,17.94325101904869,4.811611201171875,17.91675101904869,4.765011201171875L16.682351019048692,2.626271201171875C16.653451019048692,2.575891201171875,16.59925101904869,2.544401201171875,16.54005101904869,2.544401201171875L11.33305101904869,2.544401201171875L10.050801019048691,0.32505490117187497C10.02435101904869,0.278451101171875,9.97397101904869,0.249481201171875,9.91981101904869,0.249481201171875L7.443511019048691,0.249481201171875C7.389351019048691,0.249481201171875,7.340231019048691,0.278451101171875,7.312521019048691,0.32505490117187497L4.755611019048691,4.752411201171875C4.724121019048691,4.806571201171875,4.724121019048691,4.874591201171875,4.755611019048691,4.928751201171875L5.982421019048691,7.054891201171875C6.011391019048691,7.105271201171875,6.065551019048691,7.136761201171875,6.1247510190486905,7.136761201171875ZM3.948231019048691,5.989301201171875L1.4782310190486907,5.989301201171875C1.4240710190486907,5.989301201171875,1.3749410190486908,6.018271201171875,1.3472310190486907,6.064871201171875L0.1128635190486908,8.202351201171876C0.0838936490486908,8.252731201171875,0.0838936490486908,8.315711201171874,0.1128635190486908,8.366091201171875L2.7201510190486906,12.860181201171875L1.4341410190486907,15.095981201171876C1.4076910190486909,15.142581201171875,1.4076910190486909,15.200481201171876,1.4341410190486907,15.247081201171875L2.6722910190486906,17.392081201171877C2.6987410190486907,17.438681201171875,2.749131019048691,17.467681201171875,2.803291019048691,17.467681201171875L7.915851019048691,17.467681201171875C7.978821019048691,17.467681201171875,8.03676101904869,17.433681201171876,8.068251019048692,17.379481201171874L9.295071019048692,15.253381201171875C9.324031019048691,15.202981201171875,9.324031019048691,15.139981201171874,9.295071019048692,15.089681201171874L4.0893010190486905,6.071171201171875C4.060331019048691,6.020791201171875,4.006171019048691,5.989301201171875,3.9469710190486906,5.989301201171875L3.948231019048691,5.989301201171875ZM17.19625101904869,8.285481201171875L14.741451019048691,8.285481201171875C14.683451019048691,8.285481201171875,14.629351019048691,8.316971201171874,14.59905101904869,8.367351201171875L9.39205101904869,17.387081201171874C9.36308101904869,17.437481201171874,9.36308101904869,17.500381201171876,9.39205101904869,17.550781201171876L10.626451019048691,19.689581201171876C10.652851019048692,19.736181201171874,10.703251019048691,19.765081201171874,10.757451019048691,19.765081201171874L13.226151019048691,19.765081201171874C13.284051019048691,19.765081201171874,13.338251019048691,19.733681201171876,13.36845101904869,19.683281201171877L15.97205101904869,15.173981201171875L18.53525101904869,15.173981201171875C18.589351019048692,15.173981201171875,18.63845101904869,15.145081201171875,18.66625101904869,15.098481201171875L19.90435101904869,12.953381201171876C19.930851019048692,12.906781201171874,19.930851019048692,12.848881201171874,19.90435101904869,12.802281201171875L17.34745101904869,8.374911201171875C17.31595101904869,8.320751201171875,17.25805101904869,8.286741201171875,17.19505101904869,8.286741201171875L17.19625101904869,8.285481201171875Z" fill="#FFFFFF" fill-opacity="1"/></g></g></svg>