<svg xmlns="http://www.w3.org/2000/svg" fill="none" width="40" height="40"><defs><linearGradient x1=".757" y1=".041" x2=".315" y2=".844" id="b"><stop offset="0%" stop-color="#ECECFF"/><stop offset="99.286%" stop-color="#6B67E4"/></linearGradient><clipPath id="a"><rect width="40" height="40" rx="0"/></clipPath></defs><g clip-path="url(#a)"><path d="M6.93 19.55a.5.5 0 0 0 0 .9l8.346 4.042a.5.5 0 0 1 .232.232l4.042 8.347a.5.5 0 0 0 .9 0l4.042-8.347a.5.5 0 0 1 .232-.232l8.347-4.042a.5.5 0 0 0 0-.9l-8.347-4.042a.5.5 0 0 1-.232-.232L20.45 6.93a.5.5 0 0 0-.9 0l-4.042 8.347a.5.5 0 0 1-.232.232L6.93 19.55Z" fill="url(#b)"/></g></svg>